HIERARCHY
ROOT Hips
{
	OFFSET -0.179506 -22.333345 2.821913
	CHANNELS 6 Xposition Yposition Zposition Zrotation Yrotation Xrotation 
	JOINT LeftUpLeg
	{
		OFFSET 6.951974 -9.140623 -0.681533
		CHANNELS 3 Zrotation Yrotation Xrotation
		JOINT LeftLeg
		{
			OFFSET 3.427654 -37.519855 -0.449580
			CHANNELS 3 Zrotation Yrotation Xrotation
			JOINT LeftFoot
			{
				OFFSET -1.359570 -39.796059 -4.369333
				CHANNELS 3 Zrotation Yrotation Xrotation
				JOINT LeftToe
				{
					OFFSET 2.635814 -5.579078 11.928840
					CHANNELS 3 Zrotation Yrotation Xrotation
					End Site
					{
						OFFSET 0.000000 0.000000 0.000000
					}
				}
			}
		}
	}
	JOINT RightUpLeg
	{
		OFFSET -6.767048 -9.052170 -0.431982
		CHANNELS 3 Zrotation Yrotation Xrotation
		JOINT RightLeg
		{
			OFFSET -3.829005 -38.256897 -0.885003
			CHANNELS 3 Zrotation Yrotation Xrotation
			JOINT RightFoot
			{
				OFFSET 1.577377 -39.841461 -4.231180
				CHANNELS 3 Zrotation Yrotation Xrotation
				JOINT RightToe
				{
					OFFSET -2.537174 -4.814398 12.334795
					CHANNELS 3 Zrotation Yrotation Xrotation
					End Site
					{
						OFFSET 0.000000 0.000000 0.000000
					}
				}
			}
		}
	}
	JOINT Spine
	{
		OFFSET -0.253288 10.896323 -2.669631
		CHANNELS 3 Zrotation Yrotation Xrotation
		JOINT Spine1
		{
			OFFSET 0.548704 13.518043 0.109247
			CHANNELS 3 Zrotation Yrotation Xrotation
			JOINT Spine2
			{
				OFFSET 0.145701 5.292222 2.542457
				CHANNELS 3 Zrotation Yrotation Xrotation
				JOINT Neck
				{
					OFFSET -0.277840 21.387037 -4.285703
					CHANNELS 3 Zrotation Yrotation Xrotation
					JOINT Head
					{
						OFFSET 0.515184 6.496960 5.134897
						CHANNELS 3 Zrotation Yrotation Xrotation
						End Site
						{
							OFFSET 0.000000 0.000000 0.000000
						}
					}
				}
				JOINT LeftShoulder
				{
					OFFSET 7.884473 12.174932 -3.408961
					CHANNELS 3 Zrotation Yrotation Xrotation
					JOINT LeftArm
					{
						OFFSET 9.097692 3.046888 -0.886815
						CHANNELS 3 Zrotation Yrotation Xrotation
						JOINT LeftForeArm
						{
							OFFSET 25.961220 -1.277207 -2.745643
							CHANNELS 3 Zrotation Yrotation Xrotation
							JOINT LeftHand
							{
								OFFSET 24.923361 0.898606 -0.117091
								CHANNELS 3 Zrotation Yrotation Xrotation
								End Site
								{
									OFFSET 0.000000 0.000000 0.000000
								}
							}
						}
					}
				}
				JOINT RightShoulder
				{
					OFFSET -8.175920 11.883285 -3.861528
					CHANNELS 3 Zrotation Yrotation Xrotation
					JOINT RightArm
					{
						OFFSET -9.601238 3.255117 -0.914307
						CHANNELS 3 Zrotation Yrotation Xrotation
						JOINT RightForeArm
						{
							OFFSET -25.374195 -1.332924 -2.140099
							CHANNELS 3 Zrotation Yrotation Xrotation
							JOINT RightHand
							{
								OFFSET -25.529810 0.777228 -0.555919
								CHANNELS 3 Zrotation Yrotation Xrotation
								End Site
								{
									OFFSET 0.000000 0.000000 0.000000
								}
							}
						}
					}
				}
			}
		}
	}
}
MOTION
Frames: 5
Frame Time: 0.033333
-0.179506 100.938667 2.821913 171.552858 -82.257553 -172.501507 -0.832300 1.207043 4.459922 -0.079042 -2.670207 -3.373125 0.118827 8.251632 -12.060278 1.544160 1.287226 2.791371 2.930914 -3.441157 4.942260 0.237248 -5.014324 -4.711422 2.702344 -7.892138 -10.795130 2.214928 -2.352518 0.532656 -1.824922 3.104404 0.828822 1.602955 -0.895607 5.411595 -2.299515 0.753813 -3.411885 -0.754956 0.918413 -0.419134 1.030884 0.931127 -2.081990 -22.727386 7.840545 -0.484738 -49.842385 -4.293031 6.049774 5.530171 -15.156633 -1.829914 -2.902371 -8.436826 -0.706434 15.683291 -0.510175 -0.581855 54.801383 -2.414247 17.482853 -0.412634 29.833523 10.730588 7.910086 5.379835 -1.253512 
-0.234218 100.931610 2.962948 171.954623 -82.518208 -172.831407 -0.819726 1.274751 4.491285 -0.077970 -2.598869 -3.569954 0.203209 8.003012 -12.021877 1.548909 1.287252 2.787005 2.897995 -3.558645 4.891205 0.306266 -5.104544 -4.690024 2.681358 -7.883217 -10.752730 2.170375 -2.352495 0.541408 -1.889896 3.133498 0.787177 1.662697 -0.889153 5.494690 -2.302612 0.752946 -3.484715 -0.770139 0.779804 -0.318691 1.056094 0.895493 -2.061496 -22.819635 7.910172 -0.470747 -49.971596 -4.312751 6.085395 5.737733 -15.453835 -1.849446 -3.061970 -8.380738 -0.406384 15.753721 -0.528828 -0.422496 54.722152 -2.387156 17.345449 -0.656423 29.488619 10.245650 8.124781 5.372927 -1.055667 
-0.297627 100.926682 3.073277 172.069874 -82.778386 -172.912778 -0.835890 1.366508 4.606928 -0.048288 -2.592009 -3.839161 0.260616 7.769862 -11.942953 1.550970 1.288329 2.784032 2.860918 -3.669702 4.916175 0.338800 -5.145250 -4.716894 2.646861 -7.920815 -10.708166 2.136043 -2.363827 0.549524 -1.952242 3.142748 0.777051 1.708221 -0.873112 5.563170 -2.309456 0.752477 -3.526312 -0.764070 0.648304 -0.274599 1.067740 0.837214 -2.055838 -22.889491 7.963697 -0.450215 -50.047966 -4.276672 6.140332 5.859019 -15.836221 -1.726512 -3.123780 -8.338297 -0.163352 15.839026 -0.550479 -0.279162 54.596725 -2.403674 17.236554 -0.781053 29.284594 9.859068 8.320993 5.386135 -0.990526 
-0.305475 100.923325 3.137878 171.871381 -83.014430 -172.746147 -0.851439 1.444722 4.709774 -0.032667 -2.677427 -4.023275 0.256852 7.629202 -11.883177 1.552033 1.277732 2.773534 2.827364 -3.717149 4.918621 0.336661 -5.128474 -4.632153 2.611499 -8.043026 -10.754218 2.103735 -2.366937 0.553411 -1.973153 3.153447 0.784428 1.718883 -0.852688 5.577496 -2.293200 0.763077 -3.535045 -0.741370 0.567718 -0.243501 1.091527 0.847812 -2.086141 -22.987867 7.982968 -0.514627 -50.035547 -4.219013 6.213749 5.893764 -16.181498 -1.575892 -3.085531 -8.282752 0.018450 15.927763 -0.617612 -0.243254 54.445104 -2.447656 17.196887 -0.808359 29.197109 9.609865 8.416072 5.338477 -1.012039 
-0.361036 100.920380 3.189342 171.700051 -83.188930 -172.549818 -0.869335 1.457427 4.784795 -0.016135 -2.849141 -4.190688 0.273956 7.595497 -11.822790 1.541011 1.266357 2.763816 2.797679 -3.750852 4.930879 0.331910 -5.077835 -4.621341 2.576476 -8.160049 -10.767929 2.085647 -2.367262 0.549090 -2.003096 3.162589 0.803492 1.729888 -0.843121 5.588692 -2.283874 0.760849 -3.535204 -0.732122 0.510319 -0.309899 1.106695 0.833966 -2.170808 -23.066574 8.030714 -0.561654 -50.000543 -4.116305 6.286142 5.888524 -16.522119 -1.461937 -3.051637 -8.287293 0.032936 15.997901 -0.663341 -0.219818 54.298987 -2.528541 17.193017 -0.777033 29.172224 9.480119 8.535843 5.312092 -1.121984 
